<svg width="66" height="21" viewBox="0 0 66 21" fill="none" xmlns="http://www.w3.org/2000/svg">
<path d="M8.45881 11.3281H6.59233C6.55824 11.0866 6.48864 10.8722 6.38352 10.6847C6.27841 10.4943 6.14347 10.3324 5.97869 10.1989C5.81392 10.0653 5.62358 9.96307 5.40767 9.89205C5.1946 9.82102 4.96307 9.78551 4.71307 9.78551C4.26136 9.78551 3.8679 9.89773 3.53267 10.1222C3.19744 10.3437 2.9375 10.6676 2.75284 11.0938C2.56818 11.517 2.47585 12.0312 2.47585 12.6364C2.47585 13.2585 2.56818 13.7812 2.75284 14.2045C2.94034 14.6278 3.2017 14.9474 3.53693 15.1634C3.87216 15.3793 4.25994 15.4872 4.70028 15.4872C4.94744 15.4872 5.17614 15.4545 5.38636 15.3892C5.59943 15.3239 5.78835 15.2287 5.95312 15.1037C6.1179 14.9759 6.25426 14.821 6.36222 14.6392C6.47301 14.4574 6.54972 14.25 6.59233 14.017L8.45881 14.0256C8.41051 14.4261 8.28977 14.8125 8.09659 15.1847C7.90625 15.554 7.64915 15.8849 7.32528 16.1776C7.00426 16.4673 6.62074 16.6974 6.17472 16.8679C5.73153 17.0355 5.23011 17.1193 4.67045 17.1193C3.89205 17.1193 3.19602 16.9432 2.58239 16.5909C1.97159 16.2386 1.48864 15.7287 1.13352 15.0611C0.78125 14.3935 0.605114 13.5852 0.605114 12.6364C0.605114 11.6847 0.784091 10.875 1.14205 10.2074C1.5 9.53977 1.9858 9.03125 2.59943 8.68182C3.21307 8.32955 3.90341 8.15341 4.67045 8.15341C5.17614 8.15341 5.64489 8.22443 6.0767 8.36648C6.51136 8.50852 6.89631 8.71591 7.23153 8.98864C7.56676 9.25852 7.83949 9.58949 8.04972 9.98153C8.26278 10.3736 8.39915 10.8224 8.45881 11.3281ZM9.78196 8.27273H12.0575L14.4609 14.1364H14.5632L16.9666 8.27273H19.2422V17H17.4524V11.3196H17.38L15.1214 16.9574H13.9027L11.6442 11.2983H11.5717V17H9.78196V8.27273ZM22.2667 17H20.2894L23.3022 8.27273H25.68L28.6886 17H26.7113L24.5252 10.267H24.457L22.2667 17ZM22.1431 13.5696H26.8136V15.0099H22.1431V13.5696ZM29.739 17V8.27273H33.1822C33.8441 8.27273 34.408 8.39915 34.8739 8.65199C35.3398 8.90199 35.695 9.25 35.9393 9.69602C36.1864 10.1392 36.31 10.6506 36.31 11.2301C36.31 11.8097 36.185 12.321 35.935 12.7642C35.685 13.2074 35.3228 13.5526 34.8484 13.7997C34.3768 14.0469 33.8058 14.1705 33.1353 14.1705H30.9407V12.6918H32.837C33.1921 12.6918 33.4847 12.6307 33.7148 12.5085C33.9478 12.3835 34.1211 12.2116 34.2347 11.9929C34.3512 11.7713 34.4094 11.517 34.4094 11.2301C34.4094 10.9403 34.3512 10.6875 34.2347 10.4716C34.1211 10.2528 33.9478 10.0838 33.7148 9.96449C33.4819 9.84233 33.1864 9.78125 32.8285 9.78125H31.5842V17H29.739ZM37.1761 9.79403V8.27273H44.3438V9.79403H41.6719V17H39.848V9.79403H37.1761Z" fill="#35516F"/>
<path d="M49.5 19.9999L56 9L61 19.9999" stroke="#35516F" stroke-width="2" stroke-linecap="round" stroke-linejoin="round"/>
<path d="M1.5 20H45.0357L56.2857 1L65 20" stroke="#35516F" stroke-width="2" stroke-linecap="round" stroke-linejoin="round"/>
</svg>
